<?xml version="1.0" encoding="UTF-8" standalone="no"?>
<svg xmlns="http://www.w3.org/2000/svg" xmlns:xlink="http://www.w3.org/1999/xlink"  version="1.2" baseProfile="tiny" viewBox ="0 0 1016.000000 281.000000">
<title>pyqtgraph SVG export</title>
<desc>Generated with Qt and pyqtgraph</desc>
<style>
    image {
        image-rendering: crisp-edges;
        image-rendering: -moz-crisp-edges;
        image-rendering: pixelated;
    }
</style>
<rect width="100%" height="100%" style="fill:rgba(0, 0, 0, 1.000000)" />
<defs>
</defs>
<g id="GraphicsScene_1">
    <g fill="none" stroke="black" stroke-width="1" fill-rule="evenodd" stroke-linecap="square" stroke-linejoin="bevel" id="PlotItem_1">
        <g fill="none" stroke="black" stroke-width="1" fill-rule="evenodd" stroke-linecap="square" stroke-linejoin="bevel" id="ViewBox_1">
            <g fill="none" stroke="none" font-family="Ubuntu" font-size="14.6667" font-weight="400" font-style="normal">
                <path vector-effect="non-scaling-stroke" fill-rule="evenodd" d="M56.0,1.0 L1015.0,1.0 L1015.0,240.0 L56.0,240.0 L56.0,1.0 "/>
            </g>
            <clipPath id="ViewBox_1_clip">
                <path vector-effect="none" fill-rule="evenodd" d="M56.0,1.0 L1015.0,1.0 L1015.0,240.0 L56.0,240.0 L56.0,1.0 " stroke-width="1.0"/>
            </clipPath>
            <g clip-path="url(#ViewBox_1_clip)">
                <g fill="none" stroke="black" stroke-width="1" fill-rule="evenodd" stroke-linecap="square" stroke-linejoin="bevel" id="ChildGroup_1">
                    <g id="PlotDataItem_1">
                        <g fill="none" stroke="black" stroke-width="1" fill-rule="evenodd" stroke-linecap="square" stroke-linejoin="bevel" id="PlotCurveItem_1">
                            <g fill="none" stroke="#c8c8c8" stroke-opacity="1" stroke-width="1" stroke-linecap="square" stroke-linejoin="bevel" font-family="Ubuntu" font-size="14.6667" font-weight="400" font-style="normal">
                                <path vector-effect="non-scaling-stroke" fill-rule="evenodd" d="M-710.2349,208.676 L108.05010388000001,161.40590451199998 L187.85556512,180.087400928 L234.538697948,206.43068633599998 L267.66102636,199.68292975999998 L293.35264264,204.329981312 L314.344159188,190.248274112 L332.092344464,134.370261152 L347.46648760000005,98.081781056 L361.02676180000003,118.84176214399997 L373.15810388,171.68528623999998 L384.13092399999994,207.099236768 L394.14935532000004,204.82217974399998 L403.3645094,206.63578371199998 L411.89833592,206.62502623999998 L419.8409716,205.95171430399998 L427.27194883999994,207.764612864 L434.25224247999995,207.29904358399997 L440.83222304000003,208.287849248 L447.05695888,207.03680816 L452.96356512,206.03777408 L458.58120364,205.599010304 L463.93638524000005,203.59036102399998 L469.05562072,191.281696832 L473.95481656000004,174.793313888 L478.65518140000006,173.49941926399998 L483.16997064,189.12702809599998 L487.51509076,205.41578057599997 L491.70379716,204.904536128 L495.74404308,206.696272448 L499.64643284,207.05532512 L503.42157076,205.83920172799998 L507.07741008000005,207.56110265599997 L510.61925296000004,207.45776038399998 L514.0577037200001,207.903401888 L517.39541344,207.85067264 L520.63768428,206.35485497599998 L523.79246948,206.13194604799997 L526.86242012,204.77191942399998 L529.85283836,201.942351584 L532.76902636,191.69806390399998 L535.61098412,185.840708576 L538.38666488,192.109845824 L541.09606864,204.318165728 L543.7418464799999,204.675983936 L546.32930056,206.097028352 L548.86108196,207.316502432 L551.33719068,204.818652704 L553.7602778,206.25116 L556.13564548,206.643719552 L558.46064264,206.72836851199997 L560.74057144,207.63622860799998 L562.97543188,205.03609472 L565.1705261200001,205.41525152 L567.320552,205.73568310399997 L569.43346276,202.51091043199997 L571.5092584,196.681595072 L573.54528784,192.21936041599997 L575.54950432,196.707695168 L577.51660568,201.59599625599998 L579.45189408,205.498842368 L581.35536952,207.00418304 L583.227032,205.501840352 L585.0695326,206.89149411199998 L586.88287132,207.334490336 L588.66704816,207.287051648 L590.4247142,207.722641088 L592.15586944,206.943694304 L593.86316496,206.77316191999998 L595.54394968,207.146499104 L597.2008746800001,205.201336544 L598.8339399600001,204.137933984 L600.44314552,202.54071391999997 L602.03114244,197.625960032 L603.59793072,196.71210396799998 L605.14351036,201.21895568 L606.66788136,205.83779091199997 L608.1736948,206.208659168 L609.6582996,206.256979616 L611.12699792,206.73066108799998 L612.5744876,206.363496224 L614.0060708000001,207.157080224 L615.41644536,207.866367968 L616.81356452,207.32584908799998 L618.19212612,207.41931564799998 L619.5547812400001,207.25019408 L620.9015298800001,205.80534214399998 L622.2323720400001,204.489932576 L623.54730772,203.903209472 L624.8489880000001,200.92286067199998 L626.1347618,198.3065024 L627.4072802000001,200.657450912 L628.6665432,205.22972921599998 L629.90989972,205.96546976 L631.14265192,205.833911168 L632.3594976400001,206.900311712 L633.56573904,205.841847008 L634.75872504,206.15328463999998 L635.9411067200001,207.231500768 L637.1102330000001,206.85816358399998 L638.26610388,207.30909564799998 L639.41137044,207.733222208 L640.5460326799999,204.891133376 L641.6700906000001,205.7132864 L642.78089312,204.17426249599998 L643.8837424000001,201.910608224 L644.9759873600001,198.18235059199998 L646.0549769200001,200.35077478399998 L647.12601324,206.031954464 L648.18909632,203.669190368 L649.2389240000001,206.88426367999998 L650.28079844,205.386329792 L651.31471964,204.15521647999998 L652.3380365200001,207.41437779199998 L653.35074908,207.428485952 L654.35815948,207.338546432 L655.35496556,207.13098012799998 L656.3438184,205.78047651199998 L657.32206692,206.987253248 L658.29501328,204.76786332799998 L659.25735532,202.12716848 L660.2143952,203.27857068799997 L661.16083076,202.329620576 L662.1019641600001,201.404301632 L663.03249324,203.286506528 L663.9577201600001,205.71769519999998 L664.8749938400001,206.290486496 L665.78431428,206.17973744 L666.68833256,205.718753312 L667.5843976000001,206.23546467199998 L668.4725094,207.16466336 L669.35531904,207.90957420799998 L670.23017544,207.70130249599998 L671.09972968,206.727663104 L671.96133068,207.207164192 L672.8176295200001,205.37998112 L673.6686262,202.735406528 L674.51166964,203.250001664 L675.3494109200001,203.37221359999998 L676.1791989600001,201.607106432 L677.0063359200001,202.725354464 L677.82551964,205.983634016 L678.6394012000001,205.906744544 L679.4479806,206.31006156799998 L680.24860676,205.88946204799998 L681.04658184,205.14984176 L681.83660368,206.21765312 L682.62397444,207.74503779199998 L683.4033919600001,207.754913504 L684.1801584,206.93311318399998 L684.9489716,207.362706656 L685.71513372,206.13564943999998 L686.4733426,202.824464288 L687.2289004,202.914756512 L687.97915604,203.702344544 L688.7241095200001,202.09083996799998 L689.46376084,201.32388512 L690.20076108,205.81380704 L690.9324591600001,205.30785315199998 L691.65885508,204.44672633599998 L692.37994884,207.718761344 L693.0983915200001,202.735230176 L693.81153204,203.720332448 L694.5193704000001,207.414554144 L695.2219066,206.723607008 L695.92179172,207.37946009599997 L696.61902576,206.284490528 L697.3109576400001,205.222322432 L697.9975873600001,206.1233048 L698.681566,199.939874624 L699.3602424800001,199.798969376 L700.0362678800001,202.565050496 L700.7069911200001,204.21076735999998 L701.3750632800001,204.94227545599998 L702.0378332800001,204.880552256 L702.6979522,206.66611625599998 L703.35276896,205.168535072 L704.00493464,203.96211104 L704.6544492400001,204.605443136 L705.29866168,206.562068576 L705.9402230400001,208.051537568 L706.57913332,207.94025945599998 L707.2127414400001,207.4768064 L707.8436984800001,206.67652102399998 L708.4720044400001,205.502016704 L709.0950082400001,200.08236703999998 L709.7153609600001,198.99339343999998 L710.3330626000001,202.500858368 L710.94811316,203.83778288 L711.55786156,204.141813728 L712.16495888,205.078066496 L712.7694051200001,206.230703168 L713.37120028,205.320197792 L713.9703443600001,204.304939328 L714.5641862800001,203.454746336 L715.15537712,204.56541123199997 L715.7465679600001,206.99677625599998 L716.33245664,207.972179168 L716.9156942400001,207.640990112 L717.49362968,206.98654784 L718.0715651200001,205.741326368 L718.6468494800001,200.390806688 L719.21683168,197.17432255999998 L719.7868138800001,200.10264751999998 L720.35149392,203.237833376 L720.91352288,203.704108064 L721.47555184,204.882139424 L722.0322786400001,206.71232048 L722.58635436,205.24048668799998 L723.14043008,204.707550944 L723.6892036400001,202.82675686399998 L724.2353261200001,201.17081158399998 L724.7814486,204.50950764799998 L725.32226892,206.94316524799999 L725.8604381600001,206.35979283199998 L726.3986074000001,208.11290806399998 L726.9314744800001,204.594685664 L727.4643415600001,201.5646056 L727.99455756,196.928664224 L728.5194714,194.181100064 L729.04438524,198.1433768 L729.5666480000001,202.461531872 L730.08625968,207.722288384 L730.60322028,204.40687078399998 L731.12018088,205.328486336 L731.63183932,205.22196972799998 L732.14349776,198.31972879999998 L732.65250512,199.08862352 L733.15621032,204.16509219199997 L733.6625666,206.826243872 L734.16362072,207.330610592 L734.66202376,206.624673536 L735.1604268000001,206.953570016 L735.65617876,202.74880928 L736.14927964,191.92979043199998 L736.63972944,187.915489856 L737.12752816,193.976002688 L737.61532688,202.46770419199999 L738.10047452,205.96529340799998 L738.58297108,206.225765312 L739.06281656,205.2018656 L739.5426620400001,205.334658656 L740.01985644,196.732737152 L740.4943997600001,192.59798816 L740.9662920000001,197.96649574399999 L741.43818424,205.513655936 L741.9074254,206.61550323199998 L742.37401548,207.31315174399998 L742.83795448,206.75552671999998 L743.3018934800001,204.266670944 L743.7631814,185.94969411199997 L744.22181824,172.02776182399998 L744.68045508,177.72728211199998 L745.1364408400001,195.480108896 L745.58977552,205.118274752 L746.0431102,205.638865856 L746.4937938,203.788051616 L746.94182632,204.388177472 L747.38985884,189.79628393599998 L747.83524028,176.15475132799997 L748.27797064,179.80470867199998 L748.7207010000001,195.66245686399998 L749.16078028,203.14048707199998 L749.60085956,207.27488336 L750.03563668,202.107240704 L750.47306488,201.60234492799998 L750.90519092,145.70140620799998 L751.33731696,77.02729212799997 L751.7667919200001,68.11481475199997 L752.19626688,133.605422528 L752.6230907600001,195.24450262399998 L753.04991464,200.95160604799997 L753.4740874400001,201.698456768 L753.89560916,202.17443081599998 L754.31713088,153.95362169599997 L754.73600152,59.57338198399998 L755.1548721600001,44.92523215999998 L755.57109172,111.95204220799998 L755.9846602,177.29751228799998 L756.3982286800001,204.043938368 L756.8117971600001,202.524313184 L757.2227145600001,204.036531584 L757.63098088,186.93426732799998 L758.0392472000001,151.564757504 L758.4448624400001,138.13149660799996 L758.8478266000001,158.734524416 L759.25344184,190.78773488 L759.6537549200001,205.23554883199998 L760.054068,203.20679542399998 L760.4543810800001,205.87023968 L760.85204308,201.60163952 L761.247054,193.31644620799997 L761.64206492,184.54416867199998 L762.03707584,188.87272851199998 L762.42943568,200.279704928 L762.8191444400001,208.093332992 L763.2088532,207.94114121599998 L763.59856196,206.16227859199998 L763.9856196400001,203.22672319999998 L764.37002624,192.10649513599998 L764.75443284,182.24559670399998 L765.13883944,183.69097769599998 L765.52059496,195.449952704 L765.8996994,205.212270368 L766.27880384,203.00310886399998 L766.65790828,205.80798742399998 L767.03436164,204.192074048 L767.4108150000001,202.56522684799998 L767.78461728,195.32315561599998 L768.15841956,195.483812288 L768.5295707600001,202.71971119999998 L768.90072196,208.370734688 L769.2692220800001,208.02966991999998 L769.6377222,206.21871123199998 L770.0062223200001,205.69036064 L770.3720713600001,202.59185599999998 L770.7379204,194.05306851199998 L771.1011183600001,190.14740076799998 L771.46431632,196.46221318399998 L771.8248632,205.77853664 L772.18541008,202.794131744 L772.54595696,206.603864 L772.90385276,204.473884544 L773.25909748,202.97912499199998 L773.6169932800001,198.85054831999997 L773.96958692,199.637607296 L774.32483164,204.662404832 L774.6774252800001,205.992627968 L775.02736784,205.62193606399998 L775.3799614800001,207.593022368 L775.72725296,205.14208227199998 L776.07719552,204.34550028799998 L776.424487,197.296534496 L776.7691274,195.11717647999998 L777.1164188800001,199.899490016 L777.4584082,203.15530063999998 L777.8030486000001,205.858953152 L778.14503792,205.95083254399998 L778.4870272400001,204.754636928 L778.82636548,205.01599059199998 L779.16570372,204.173028032 L779.50239088,201.890504096 L779.84172912,202.707190208 L780.1757652000001,206.04923695999997 L780.51245236,207.786480512 L780.84648844,207.52442144 L781.1805245200001,205.904981024 L781.51190952,206.083096544 L781.8432945200001,202.478285312 L782.1746795200002,198.85407536 L782.50341344,199.691218304 L782.83214736,203.51153168 L783.1582302,206.20442672 L783.4843130400001,205.460044928 L783.81039588,205.39426563199999 L784.13647872,204.387648416 L784.45991048,204.186254432 L784.78334224,203.43993276799998 L785.10412292,203.02691638399997 L785.4249036000001,205.535699936 L785.7456842800001,207.828099584 L786.0664649600001,208.09615462399998 L786.38459456,206.968559936 L786.7027241600001,205.95435958399997 L787.0182026800001,204.533315168 L787.3336812,201.825430208 L787.6491597200001,200.993930528 L787.96463824,202.509323264 L788.2774656800001,205.816805024 L788.5902931200001,205.04209068799997 L788.90046948,204.317283968 L789.2106458400001,205.10839904 L789.5208222000001,203.34911148799998 L789.83099856,203.43658208 L790.13852384,201.975682112 L790.44604912,205.699001888 L790.7535744,206.92306112 L791.0584486,206.744416544 L791.3633228,206.111489216 L791.668197,207.822103616 L791.97042012,205.257592832 L792.27529432,202.384818752 L792.5748663600001,199.83706140799998 L792.87708948,203.17998992 L793.17666152,205.27804966399998 L793.4762335600001,203.434289504 L793.7758056,206.70685356799999 L794.07272656,202.81423587199998 L794.3696475200001,202.847037344 L794.66656848,205.51312688 L794.96083836,205.05902048 L795.25775932,204.590982272 L795.5520292,206.44144380799997 L795.843648,207.640461056 L796.1379178800001,208.151000096 L796.42953668,205.723691168 L796.72115548,204.52573203199998 L797.0101232000001,204.60879382399997 L797.29909092,202.520609792 L797.5880586400001,203.03097248 L797.8770263600001,204.42044988799998 L798.163343,205.01916492799998 L798.4523107200001,205.93725343999998 L798.73862736,204.049757984 L799.02229292,203.555090624 L799.30860956,204.645122336 L799.59227512,204.624489152 L799.8732896000001,204.187488896 L800.15695516,206.481652064 L800.43796964,207.91997897599998 L800.7189841200001,207.88559033599998 L800.9999986,205.68013222399998 L801.28101308,205.405199456 L801.5593764800001,205.829149664 L801.83773988,203.48507887999997 L802.1161032800001,202.49697862399998 L802.3918156000001,204.87631980799998 L802.6701790000001,205.669022048 L802.9458913200001,205.891930976 L803.2189525599999,205.226378528 L803.4946648800001,202.83716163199998 L803.76772612,203.09304838399999 L804.0407873600001,204.51180022399998 L804.3138486000001,204.54583616 L804.58690984,205.055846144 L804.85732,207.23396969599997 L805.12773016,207.4591712 L805.39814032,205.25000969599998 L805.6658994000001,205.04350150399998 L805.93630956,206.78638832 L806.20406864,205.14649107199998 L806.47182772,202.01253967999997 L806.73693572,202.881778688 L807.0046948,207.897582272 L807.2698028,203.973750272 L807.5349108,204.624136448 L807.8000188000001,203.79510569599998 L808.0624757200001,198.67842876799997 L808.32493264,202.190302496 L808.58738956,205.90339385599998 L808.84984648,207.391099328 L809.1123034000001,205.84413958399998 L809.37210924,206.77933424 L809.6319150800001,207.785951456 L809.89172092,206.358205664 L810.15152676,203.054250944 L810.40868152,203.080880096 L810.6684873600001,204.120122432 L810.9256421200001,205.29092336 L811.18279688,205.756316288 L811.43730056,204.908768576 L811.6944553200001,205.19498787199998 L811.9489590000001,202.83998326399998 L812.2034626800001,199.39723952 L812.45796636,201.45861804799998 L812.70981896,205.49196464 L812.96167156,205.500605888 L813.21617524,205.917678368 L813.46802784,208.03795846399998 L813.71722936,207.77166694399997 L813.96908196,206.27567292799998 L814.21828348,202.28412175999998 L814.4674850000001,202.919165312 L814.71668652,205.07118876799998 L814.9658880400001,205.022515616 L815.2124384800001,204.664344704 L815.46164,205.17594185599998 L815.7081904400001,204.989185088 L815.95474088,203.22002182399999 L816.19864024,199.878856832 L816.4451906800001,198.979108928 L816.68909004,202.501740128 L816.9329894,204.58992415999998 L817.1768887600001,206.390301728 L817.42078812,208.46931545599998 L817.6620364,207.62406031999998 L817.90593576,206.417283584 L818.1471840400001,201.993493664 L818.38843232,201.76141443199998 L818.6296806,204.527671904 L818.8682778000001,204.772272128 L819.10952608,204.20953289599998 L819.3481232800001,205.136791712 L819.58672048,206.435095136 L819.82531768,203.202210272 L820.0612638,201.192855584 L820.2998610000001,196.679302496 L820.5358071200001,196.50118697599999 L820.7717532400001,201.82507750399998 L821.0076993600001,206.0924432 L821.2436454799999,206.930644256 L821.4769405200001,206.9477504 L821.71288664,204.208298432 L821.94618168,204.467712224 L822.17947672,201.56584006399999 L822.4127717599999,199.93317324799997 L822.6434157200001,200.38639788799998 L822.87671076,204.789907328 L823.1073547200001,207.535531616 L823.33799868,204.49310691199997 L823.56864264,206.31729199999998 L823.7992866,199.72966304 L824.0272794800001,190.300297952 L824.25792344,191.87388684799998 L824.48591632,200.62553119999998 L824.7139092,206.316057536 L824.9419020800001,206.30671088 L825.1698949600001,207.22356492799997 L825.39523676,207.32761260799998 L825.6232296400001,203.613286784 L825.84857144,198.422189312 L826.07391324,196.20526832 L826.29925504,198.707174144 L826.5245968400001,204.86274070399998 L826.74728756,207.787362272 L826.97262936,206.145701504 L827.19532008,204.140931968 L827.4180108,199.71590758399998 L827.6407015200001,182.99156566399998 L827.86339224,178.38789670399998 L828.08343188,191.31361654399998 L828.3061226000001,204.041116736 L828.52616224,204.36842604799998 L828.7462018800001,206.66382367999998 L828.96624152,207.244198112 L829.1862811600001,204.799430336 L829.4063208,191.49825708799997 L829.62370936,183.23422601599998 L829.84109792,189.178346528 L830.06113756,202.125228608 L830.27852612,206.481652064 L830.4932636000001,203.63515443199998 L830.7106521600001,201.00204272 L830.9280407200001,194.14247897599998 L831.1427782000001,159.39602076799997 L831.3575156800001,135.828868544 L831.5722531600001,152.881401536 L831.7869906400001,185.84441196799997 L832.00172812,198.35447014399998 L832.2164656000001,200.304041504 L832.4285520000001,200.374053248 L832.64328948,189.354522176 L832.85537588,116.14904345599999 L833.0674622800001,40.682732095999995 L833.2795486800001,63.16355599999997 L833.49163508,147.867714176 L833.7010704,189.12932067199998 L833.9131568000001,196.866411968 L834.12259212,195.87302115199998 L834.33202744,205.510128896 L834.5414627600001,132.15069488 L834.7508980800001,74.34903430399999 L834.9603334,80.36228479999997 L835.1697687200001,135.931505408 L835.37655296,186.48439337599999 L835.5833372000001,202.77402761599998 L835.79012144,198.55974387199998 L835.99955676,204.308290016 L836.20368992,191.177825504 L836.4104741600001,179.55234896 L836.6172584000001,178.690340384 L836.82139156,189.781117664 L837.0281758,202.11482383999999 L837.2323089600001,202.82904943999998 L837.43644212,204.95761807999997 L837.64057528,202.877722592 L837.8447084400001,197.32757244799998 L838.0461905200001,182.16782547199998 L838.2503236800001,173.345111264 L838.4518057600001,181.65375939199998 L838.6532878400001,198.62023260799998 L838.857421,206.02084428799998 L839.05890308,204.75128623999998 L839.25773408,207.81152249599998 L839.4592161600001,202.86114550399998 L839.6606982400001,199.481712128 L839.8595292400001,196.540689824 L840.06101132,196.478261216 L840.25984232,201.517695968 L840.45867332,203.86564649599998 L840.65750432,202.79254457599998 L840.85633532,203.973926624 L841.05251524,203.737438592 L841.25134624,196.92407907199998 L841.44752616,186.968479616 L841.64635716,189.36721952 L841.84253708,200.8900592 L842.038717,207.10611449599998 L842.23489692,207.003830336 L842.4310768400001,207.23908390399998 L842.6246056800001,206.90683673599997 L842.8207856,205.63093001599998 L843.01431444,201.354570368 L843.20784328,198.004587776 L843.4040232,201.85629180799998 L843.5975520400001,204.99729728 L843.7910808800001,202.353604448 L843.98195864,206.51745151999998 L844.17548748,203.25670304 L844.3690163200001,200.459936672 L844.55989408,192.784392224 L844.75077184,195.289825088 L844.9443006800001,202.15767737599998 L845.13517844,205.51665391999998 L845.3260562,207.165721472 L845.5169339600001,207.545230976 L845.70516064,206.06334511999998 L845.8960384000001,206.46313510399997 L846.08426508,201.239765216 L846.2751428400001,201.395131328 L846.46336952,204.347616512 L846.6515962000001,204.624489152 L846.83982288,206.138471072 L847.0280495600001,205.46427737599998 L847.21627624,204.40034576 L847.40450292,203.65614032 L847.59007852,199.882912928 L847.7783052000001,197.67868928 L847.9638808000001,200.533475456 L848.1494564,205.442409728 L848.3350320000001,207.65509827199998 L848.5206076000001,206.043240992 L848.7061832,207.114579392 L848.8917588,206.91724150399997 L849.0746833200001,204.282366272 L849.2602589200001,203.27610176 L849.44318344,204.273901376 L849.6287590400001,206.281845248 L849.8116835600001,206.388538208 L849.99460808,205.746440576 L850.1775326,204.885137408 L850.36045712,203.088992288 L850.54338164,202.22363302399998 L850.7236550800001,200.27935222399998 L850.9065796000001,200.57985603199998 L851.08685304,203.84219167999998 L851.2697775600001,207.00894454399997 L851.450051,206.01960982399999 L851.6303244400001,206.87756230399998 L851.81059788,207.135741632 L851.9908713200001,205.399732544 L852.1711447600001,205.83408752 L852.3514182,205.02868793599998 L852.5290405600001,204.654645344 L852.7093140000001,207.148086272 L852.88693636,204.099312896 L853.06455872,204.308113664 L853.24218108,203.719097984 L853.4224545200001,202.17831056 L853.5974258,200.262422432 L853.77504816,199.41998892799998 L853.95267052,205.025160896 L854.1302928800001,204.91070844799998 L854.3052641600001,206.280787136 L854.4828865200001,207.543291104 L854.6578578,207.18935263999998 L854.83282908,207.181064096 L855.0104514400001,204.919173344 L855.18542272,204.077268896 L855.360394,206.13300415999998 L855.5327142,205.25547660799998 L855.7076854800001,204.098431136 L855.88265676,205.33994921599998 L856.05497696,201.839362016 L856.2299482400001,202.613370944 L856.4022684400001,203.00434332799998 L856.57458864,201.556493408 L856.74955992,203.179460864 L856.92188012,205.750849376 L857.0942003200001,208.126310816 L857.26386944,207.88841196799999 L857.4361896400001,207.173657312 L857.60850984,207.320911232 L857.78083004,206.020667936 L857.95049916,205.07383404799998 L858.12016828,206.15416639999998 L858.2924884800001,204.853217696 L858.4621576,205.624052288 L858.63182672,205.038387296 L858.8014958400001,202.99940547199998 L858.97116496,203.381383904 L859.1408340800001,203.376975104 L859.30785212,201.49759183999998 L859.4775212400001,202.50914691199998 L859.6471903600001,206.754997664 L859.8142084,207.5605736 L859.98122644,206.91547798399998 L860.15089556,207.485976704 L860.3179136,207.5649824 L860.48493164,207.3489512 L860.6519496800001,204.864327872 L860.81896772,205.90974252799998 L860.9859857600001,206.36825772799997 L861.15035272,205.63057731199999 L861.3173707600001,207.01758579199998 L861.48173772,203.374682528 L861.64875576,202.142863808 L861.81312272,202.85462048 L861.98014076,202.512144896 L862.1445077200001,201.864227648 L862.30887468,204.10936496 L862.47324164,208.33422982399998 L862.6376086,204.656585216 L862.8019755600001,205.824564512 L862.96369144,206.62414447999998 L863.1280584000001,206.315175776 L863.2897742800001,206.31641023999998 L863.4541412400001,203.929133216 L863.6158571200001,205.77765488 L863.7802240800002,207.72246473599998 L863.9419399600001,203.89403916799998 L864.1036558400001,206.084683712 L864.2653717200001,200.752151936 L864.4270876,197.794376192 L864.5888034800001,202.067914208 L864.7505193600001,204.571230848 L864.9095841600001,205.17241481599999 L865.0713000400001,205.09182195199998 L865.2303648400001,206.68516227199999 L865.3920807200001,206.84105744 L865.5511455200001,207.20081552 L865.7128614000001,207.87924166399998 L865.8719262000001,206.318526464 L866.030991,206.60686198399998 L866.1900558,207.078956288 L866.3491206000001,207.18670735999999 L866.5081854000001,204.542661824 L866.66459912,205.079830016 L866.8236639200001,200.384458016 L866.98272872,197.17961312 L867.1391424400001,201.29143635199998 L867.2982072400001,204.262967552 L867.45462096,203.678889728 L867.61103468,204.67086972799999 L867.7700994800001,207.60907039999998 L867.9265132,206.72625228799998 L868.08292692,207.345776864 L868.23934064,207.29375302399998 L868.3957543600001,207.558281024 L868.549517,207.777839264 L868.70593072,206.884087328 L868.8623444400001,205.77007174399998 L869.01610708,205.37733584 L869.1725208,204.206534912 L869.32628344,201.485423552 L869.48269716,196.90732563199998 L869.6364598000001,198.01816688 L869.79022244,201.68911011199998 L869.9439850800001,203.22531238399998 L870.09774772,205.26976112 L870.25151036,207.93161820799997 L870.4052730000001,208.084691744 L870.55903564,206.58428892799998 L870.71279828,206.40493894399998 L870.86390984,207.59848928 L871.0176724800001,206.32170079999997 L871.16878404,207.205929728 L871.3225466800001,204.74758284799998 L871.47365824,206.067577568 L871.6247698000001,205.358642528 L871.7758813600001,201.741310304 L871.92699292,198.81369075199999 L872.0807555600001,193.84250422399998 L872.22921604,194.684937728 L872.3803276000001,200.648633312 L872.5314391600001,206.77598355199999 L872.68255072,207.096062432 L872.8336622800001,205.066250912 L872.98212276,205.64186383999998 L873.13323432,205.99968204799998 L873.2816948000001,205.44523135999998 L873.4301552800001,206.01996252799998 L873.58126684,203.629863872 L873.72972732,208.037253056 L873.8781878000001,206.61550323199998 L874.02664828,205.30414975999997 L874.1751087600001,206.659591232 L874.3235692400001,195.207292352 L874.4720297200001,186.27330003199998 L874.6204902,189.05154943999997 L874.7662996,199.321231808 L874.9147600800001,206.03936124799998 L875.0632205600001,206.05664374399998 L875.2090299600001,205.82244828799998 L875.35749044,204.882492128 L875.5032998400001,205.29339228799998 L875.64910924,205.898985056 L875.79491864,205.523708 L875.94337912,204.24921209599998 L876.0891885200001,207.56304252799998 L876.23499792,206.04941331199998 L876.38080732,205.22514406399998 L876.52661672,204.044291072 L876.66977504,192.72143455999998 L876.8155844400001,172.49227299199998 L876.96139384,171.86587068799997 L877.10455216,190.15762918399997 L877.25036156,203.487547808 L877.39351988,203.520525632 L877.5393292800001,204.98971414399998 L877.6824876000001,204.866091392 L877.82564592,204.731182112 L877.96880424,206.47900678399998 L878.11461364,203.953117088 L878.25777196,204.86856032 L878.40093028,204.273901376 L878.5440886,202.79871689599997 L878.68459584,199.12830272 L878.82775416,197.40358016 L878.97091248,175.61846489599998 L879.1140708,120.51904601599999 L879.25457804,97.82765782399998 L879.3977363600001,135.253255616 L879.5382436000001,178.37502300799997 L879.67875084,194.87292896 L879.82190916,195.274658816 L879.9624164,194.16469932799998 L880.10292364,178.44115500799998 L880.24343088,81.08709151999999 L880.38393812,32.323999999999984 L880.5244453600001,85.58688915199998 L880.6649526,147.874062848 L880.80545984,185.501407328 L880.94596708,199.103789792 L881.0864743200001,193.668797504 L881.22433048,187.335291776 L881.3648377200001,135.933268928 L881.50534496,106.026967712 L881.6432011200001,118.81936543999998 L881.78105728,159.291620384 L881.9215645200001,196.336297856 L882.05942068,196.017982496 L882.1972768400001,201.51557974399998 L882.33778408,198.84666857599998 L882.47564024,204.279720992 L882.6134964000001,202.69255299199997 L882.7513525600001,205.421600192 L882.88920872,204.62343103999999 L883.0244138,207.63375968 L883.16226996,204.36630982399998 L883.30012612,206.65394796799998 L883.43798228,202.40615734399998 L883.57318736,193.66139071999999 L883.71104352,179.998343168 L883.8462486000001,174.03306041599998 L883.98410476,183.038298944 L884.11930984,200.40808918399998 L884.25451492,201.721382528 L884.3923710800001,203.63145104 L884.5275761600001,204.235985696 L884.6627812400001,205.61893808 L884.7979863200001,205.267468544 L884.9331913999999,205.390385888 L885.06839648,206.14693596799998 L885.20360156,205.96582246399998 L885.33880664,203.94412313599997 L885.4713606400001,204.21535251199998 L885.60656572,203.410305632 L885.7417708,204.22205388799998 L885.8743248000001,193.81993116799998 L886.0095298800001,185.39577248 L886.14208388,189.396141248 L886.2772889600001,201.961750304 L886.40984296,204.389059232 L886.54239696,205.554745952 L886.67760204,206.87703324799998 L886.81015604,206.330694752 L886.9427100400001,205.12039097599998 L887.07526404,206.54319891199998 L887.20781804,205.72951078399998 L887.3403720400001,206.606332928 L887.4729260400001,203.90726556799999 L887.6054800400001,203.90656016 L887.7353829600002,205.056904256 L887.8679369600001,204.409516064 L888.0004909600001,197.82541414399998 L888.13039388,191.050852064 L888.2629478800001,195.574280864 L888.3928508,202.277596736 L888.5254048,205.478914592 L888.65530772,208.180803584 L888.78786172,206.09491212799998 L888.9177646400001,205.96176636799999 L889.0476675600001,207.52353968 L889.17757048,206.63543100799998 L889.3074734,207.800765024 L889.4373763200001,206.50510688 L889.5672792400001,205.458634112 L889.69718216,207.170130272 L889.8270850800001,205.21526835199998 L889.956988,205.402554176 L890.0868909200001,202.44636559999998 L890.2141427600001,197.917822592 L890.34404568,197.221232192 L890.4739486,200.94896076799998 L890.6012004400001,205.77183526399998 L890.73110336,205.73797567999998 L890.8583552000001,205.14790188799998 L890.9882581200001,205.80163875199997 L891.1155099599999,205.19922032 L891.2427618,207.54717084799998 L891.37001364,207.693013952 L891.4999165600001,207.678024032 L891.6271684000001,207.7104728 L891.7544202400001,207.204871616 L891.88167208,207.25213395199998 L892.00892392,204.844929152 L892.1361757600001,203.052487424 L892.2634276000001,201.42158412799998 L892.3880283600001,200.107409024 L892.5152802000001,200.19135257599999 L892.64253204,203.32018975999998 L892.7671328000001,205.88134985599999 L892.89438464,203.618577344 L893.02163648,206.280434432 L893.14623724,204.65587980799998 L893.27348908,206.336867072 L893.39808984,205.829149664 L893.5226906000001,207.15002614399998 L893.64994244,206.615679584 L893.7745432,208.31271488 L893.8991439600001,204.42097894399998 L894.0237447200001,205.71081747199997 L894.1483454800001,203.49019308799998 L894.2729462400001,202.119938048 L894.397547,199.293720896 L894.52214776,199.82401136 L894.6467485200001,204.501042752 L894.7713492800001,203.635507136 L894.89595004,205.86583087999998 L895.0178997200001,205.41489881599998 L895.14250048,205.10134495999998 L895.26710124,207.633230624 L895.38905092,207.80129408 L895.5136516800001,207.24807785599998 L895.63560136,207.73974723199998 L895.76020212,206.139881888 L895.8821518,205.007525696 L896.00410148,205.31561263999998 L896.12870224,202.32309555199998 L896.2506519200001,203.160414848 L896.3726016,201.351748736 L896.49455128,201.18368528 L896.61650096,203.26904768 L896.7384506400001,204.753578816 L896.86040032,207.34612956799998 L896.98235,205.68912617599997 L897.10429968,206.05346940799998 L897.22624936,207.33484303999998 L897.34819904,206.07833503999998 L897.46749764,206.38465846399998 L897.58944732,207.496381472 L897.711397,205.67836870399998 L897.8306956,206.93452399999998 L897.9526452800001,204.48816905599998 L898.07194388,204.229637024 L898.1938935600001,204.436145216 L898.3131921600001,202.16067536 L898.43514184,200.51531119999999 L898.5544404400001,203.610994208 L898.6737390400001,206.54690230399999 L898.79303764,206.102318912 L898.91498732,207.034691936 L899.0342859200001,204.953738336 L899.15358452,205.022162912 L899.2728831200001,205.99915299199998 L899.39218172,206.52009679999998 L899.51148032,207.25971708799997 L899.6307789200001,205.751907488 L899.74742644,207.19728848 L899.86672504,205.984163072 L899.9860236400001,203.364630464 L900.10532224,204.159096224 L900.2219697600001,203.260406432 L900.3412683600001,201.137128352 L900.4579158800001,201.53180412799998 L900.5772144800001,204.87279276799998 L900.693862,206.181148256 L900.8131606000001,202.96572224 L900.92980812,207.16554512 L901.04910672,201.70921424 L901.1657542400001,203.76583126399998 L901.2824017600001,207.389335808 L901.39904928,207.359003264 L901.5183478800001,206.984431616 L901.6349954,207.10911248 L901.7516429200001,205.678192352 L901.86829044,206.532617792 L901.9849379600001,200.853554336 L902.10158548,199.6203248 L902.218233,202.657635296 L902.33222944,204.07338915199998 L902.4488769600001,204.571936256 L902.56552448,204.79061273599999 L902.682172,204.58992415999998 L902.79616844,205.055140736 L902.91281596,202.821642656 L903.0294634800001,204.43402899199998 L903.14345992,208.01080025599998 L903.2601074400001,207.63887388799998 L903.37410388,206.58975583999998 L903.4881003200001,207.93038374399998 L903.60474784,204.933457856 L903.71874428,205.92684867199998 L903.8327407200001,199.549431296 L903.94938824,198.742444544 L904.06338468,203.00804671999998 L904.1773811200001,204.02736127999998 L904.29137756,203.030796128 L904.405374,204.50703872 L904.5193704400001,205.858424096 L904.63336688,204.731182112 L904.7473633200001,204.9461552 L904.8613597600001,203.835490304 L904.9753562,204.680921792 L905.08935264,205.81433609599998 L905.2006980000001,207.47045772799999 L905.31469444,207.08354143999998 L905.4286908800001,205.321079552 L905.5400362400001,204.86185894399998 L905.65403268,200.537531552 L905.76802912,197.640068192 L905.87937448,200.32220575999997 L905.9933709200001,202.21375731199998 L906.10471628,203.23025023999998 L906.21606164,204.84563455999998 L906.3300580800001,207.81011167999998 L906.44140344,206.037245024 L906.5527488,204.95444374399997 L906.6667452400001,204.017309216 L906.7780906,200.768023616 L906.8894359600001,202.66856912 L907.0007813200001,207.74380332799998 L907.11212668,205.14190592 L907.22347204,207.78401158399998 L907.3348174,203.884692512 L907.4461627600001,202.178134208 L907.5575081200001,199.521744032 L907.66885348,195.294057536 L907.78019884,195.27518787199998 L907.88889312,202.021533632 L908.00023848,207.377520224 L908.1115838400001,207.015998624 L908.2202781200001,203.79475299199999 L908.33162348,206.825362112 L908.44296884,197.883433952 L908.5516631200001,197.21682339199998 L908.66300848,203.28227407999998 L908.77170276,206.830299968 L908.88304812,206.886732608 L908.9917424,206.28784121599998 L909.10043668,207.369937088 L909.21178204,205.000471616 L909.32047632,195.04716473599998 L909.4291706,188.249853248 L909.53786488,190.446141056 L909.64655916,200.534357216 L909.75790452,206.64671753599998 L909.8665988,205.41595692799999 L909.97529308,202.873666496 L910.08398736,202.951790432 L910.19268164,195.38558422399998 L910.2987248400001,190.22993350399997 L910.4074191200001,198.54281408 L910.5161134000001,207.18388572799998 L910.62480768,204.31199340799998 L910.73350196,205.217208224 L910.8395451600001,204.72853683199997 L910.9482394400001,205.73938649599998 L911.0569337200001,188.59391599999998 L911.16297692,171.287436128 L911.2716712,175.02433500799998 L911.3777144000001,193.537591616 L911.4864086800001,205.12180179199999 L911.59245188,201.91360620799998 L911.70114616,201.81432003199998 L911.80718936,199.57905843199998 L911.9158836400001,189.2508272 L912.02192684,176.325812768 L912.12797004,182.56532288 L912.23401324,193.35894703999998 L912.34270752,196.247945504 L912.44875072,196.952824448 L912.55479392,195.39863427199998 L912.6608371200001,191.476036736 L912.76688032,150.43398847999998 L912.8729235200001,80.78094444799999 L912.97896672,73.03115580799997 L913.0850099200001,128.19353235199998 L913.19105312,174.62313420799998 L913.29709632,186.50291033599999 L913.40048844,196.222198112 L913.50653164,190.01584217599998 L913.6125748400001,150.130486688 L913.71861804,70.28588422399997 L913.8220101600001,58.15392473599999 L913.92805336,98.82492838399999 L914.0340965600001,151.99152934399999 L914.13748868,197.08667561599998 L914.24353188,189.465623936 L914.3469240000001,201.106443104 L914.4529672000001,181.58991996799998 L914.5563593200001,155.49529087999997 L914.66240252,144.712071488 L914.76579464,155.61062508799998 L914.86918676,179.79165862399998 L914.9752299600001,198.98722112 L915.0786220800001,197.10025471999998 L915.1820142,201.232534784 L915.2854063200001,199.792973408 L915.3887984400001,197.38418144 L915.49219056,184.98293244799999 L915.59558268,185.505287072 L915.70162588,196.18163715199998 L915.8050180000001,208.407768608 L915.90575904,205.36939999999998 L916.00915116,207.21545273599997 L916.11254328,201.60340304 L916.2159354,194.932183232 L916.31932752,187.17974931199998 L916.42271964,182.401139168 L916.5261117599999,189.11115641599997 L916.6268528,201.998255168 L916.73024492,199.389127328 L916.83363704,203.608172576 L916.9343780800001,202.60173171199997 L917.0377702000001,204.98318912 L917.13851124,193.66668127999998 L917.24190336,193.869309728 L917.3426444,202.404570176 L917.44603652,207.826688768 L917.5467775600001,206.45590467199997 L917.6501696800001,205.51118700799998 L917.75091072,204.962379584 L917.8516517600001,204.47970415999998 L917.9550438800001,196.05290019199998 L918.05578492,189.72803571199998 L918.1565259600001,193.340606432 L918.2572670000001,204.04270390399998 L918.3580080400001,201.953638112 L918.4587490800001,205.90797900799998 L918.5621412,204.72448073599998 L918.66288224,205.038916352 L918.76362328,197.65876150399998 L918.86436432,198.771895328 L918.96510536,205.760372384 L919.06319532,207.235733216 L919.1639363600001,204.19771731199998 L919.2646774,206.522213024 L919.36541844,204.74176323199998 L919.4661594800001,206.43068633599998 L919.56690052,197.749759136 L919.66499048,194.16046688 L919.76573152,199.26233023999998 L919.86647256,203.508357344 L919.9645625200001,205.492493696 L920.0653035600001,207.194466848 L920.16339352,205.16871142399998 L920.26413456,204.67369136 L920.36222452,203.822969312 L920.46296556,202.61707433599997 L920.5610555200001,203.286506528 L920.66179656,204.329981312 L920.75988652,206.52062585599998 L920.85797648,206.227176128 L920.95871752,205.803402272 L921.05680748,206.91406716799997 L921.15489744,202.34108345599998 L921.2529873999999,199.341159584 L921.3510773600001,199.962800384 L921.4518184,203.17381759999998 L921.54990836,206.12665548799998 L921.6479983199999,204.699438752 L921.7460882800001,205.25635836799998 L921.8441782400001,203.422121216 L921.9422682000001,203.847834944 L922.0403581600001,204.483407552 L922.13844812,203.538337184 L922.2365380800001,204.09913654399998 L922.33197696,206.52203667199998 L922.4300669200001,207.738512768 L922.52815688,207.063084608 L922.62624684,205.845374048 L922.7216857200001,203.69141072 L922.81977568,203.22055088 L922.9178656400001,202.38217347199998 L923.0133045200001,201.161464928 L923.1113944800001,204.250270208 L923.2094844400001,204.010960544 L923.3049233200001,202.84527382399997 L923.4030132800001,204.7433504 L923.49845216,202.8696104 L923.5965421200001,203.73585142399997 L923.691981,201.45791264 L923.78741988,205.3605824 L923.88550984,206.61903027199997 L923.9809487200001,207.457054976 L924.0763876,206.43333161599998 L924.17447756,207.34242617599998 L924.2699164400001,204.84069670399998 L924.36535532,203.50095055999998 L924.4607942,201.298137728 L924.5562330800001,201.685583072 L924.65432304,204.410397824 L924.7497619200001,203.11879577599998 L924.8452008,204.88954620799998 L924.94063968,203.721214208 L925.0360785600001,203.366570336 L925.13151744,204.581635616 L925.22695632,203.36868656 L925.3223952000001,205.242073856 L925.4151830000001,206.859750752 L925.5106218800001,206.846171648 L925.60606076,206.497700096 L925.7014996400001,206.12612643199998 L925.7969385200001,203.887866848 L925.88972632,204.24568505599999 L925.9851652,202.18025043199998 L926.0806040800001,203.34064659199998 L926.17339188,203.38032579199998 L926.26883076,204.74423216 L926.3642696400001,206.037421376 L926.4570574400001,204.09384598399998 L926.55249632,205.12215449599998 L926.64528412,204.717955712 L926.740723,202.865377952 L926.8335108,204.000555776 L926.9262986000001,206.94581052799998 L927.02173748,207.639579296 L927.1145252800001,206.30194937599998 L927.20996416,205.93548991999998 L927.30275196,206.40317542399998 L927.3955397600001,205.810103648 L927.48832756,202.15591385599998 L927.58376644,202.655695424 L927.6765542400001,205.85701328 L927.7693420400001,205.413311648 L927.8621298400001,206.364554336 L927.9549176400001,205.430946848 L928.04770544,202.66239679999998 L928.1404932400001,203.508357344 L928.2332810400001,203.61434489599998 L928.3260688400001,204.061044512 L928.4188566400001,204.270550688 L928.51164444,206.05981807999999 L928.60443224,206.661354752 L928.69722004,204.712665152 L928.79000784,206.132827808 L928.8801445600001,207.02534527999998 L928.9729323600001,203.89721350399998 L929.0657201600001,201.88292095999998 L929.1585079600001,203.328654656 L929.2486446800001,206.56683008 L929.34143248,204.134759648 L929.43422028,203.55473791999998 L929.524357,203.625102368 L929.6171448,198.64280566399998 L929.7099326000001,202.4507744 L929.80006932,206.064403232 L929.89285712,206.250983648 L929.9829938400001,205.844492288 L930.0757816400001,207.23961296 L930.16591836,208.44321535999998 L930.25605508,207.357592448 L930.34884288,204.04940527999997 L930.4389796,202.56557955199997 L930.52911632,204.18184563199998 L930.6219041200001,204.695911712 L930.71204084,205.31032208 L930.80217756,203.7645968 L930.89231428,203.51276614399998 L930.98510208,202.787783072 L931.0752388000001,198.672785504 L931.1653755200001,202.120819808 L931.25551224,205.544517536 L931.3456489600001,204.70155497599998 L931.4357856800001,205.05478803199998 L931.5259224,207.91680463999998 L931.61605912,206.75094156799997 L931.7061958400001,206.24728025599998 L931.7963325600001,202.00530924799997 L931.88646928,203.083701728 L931.9766060000001,205.70905395199998 L932.0667427200001,204.87949414399998 L932.1568794400001,203.4912512 L932.2443650800001,204.817770944 L932.3345018000001,203.880812768 L932.42463852,203.59036102399998 L932.5147752400001,200.62235686399998 L932.60226088,199.634256608 L932.6923976,201.599876 L932.7825343200001,203.505712064 L932.87001996,206.27972902399998 L932.9601566800001,207.939201344 L933.04764232,205.95259606399998 L933.13777904,206.16174953599997 L933.2279157600001,201.75136236799997 L933.3154014,202.405099232 L933.40288704,204.230871488 L933.49302376,204.34056243199998 L933.5805094,203.86070863999998 L933.67064612,205.01281625599998 L933.7581317600001,207.27153267199998 L933.8456174,203.87746208 L933.9357541200001,202.707895616 L934.02323976,198.117629408 L934.1107254000001,195.28964873599998 L934.20086212,199.709735264 L934.2883477600001,207.08953740799998 L934.3758334,205.65262131199998 L934.46331904,206.740007744 L934.5508046799999,203.19762512 L934.6382903200001,205.141729568 L934.7257759600001,204.081324992 L934.8159126800001,199.87356627199998 L934.9033983200001,198.296097632 L934.99088396,205.348414112 L935.0783696,206.862748736 L935.16585524,205.90692089599997 L935.2506898000001,204.271079744 L935.3381754400001,201.96792262399998 L935.42566108,190.403816576 L935.51314672,190.21600169599998 L935.6006323600001,198.949834496 L935.688118,206.40811327999998 L935.77560364,205.459515872 L935.8604382000001,205.780829216 L935.94792384,206.27831820799997 L936.0354094800001,204.88901715199998 L936.1228951200001,201.279091712 L936.20772968,195.310634624 L936.29521532,195.200590976 L936.3800498800001,204.40687078399998 L936.4675355200001,204.52467392 L936.55502116,204.49275420799998 L936.63985572,200.24284735999998 L936.72734136,199.94498883199998 L936.8121759200001,182.460922496 L936.89966156,177.470337248 L936.98449612,191.59948313599998 L937.06933068,202.470878528 L937.15681632,202.34284697599998 L937.2416508800001,205.477503776 L937.32913652,205.484381504 L937.41397108,207.935497952 L937.49880564,192.785450336 L937.5862912800001,182.116154336 L937.6711258400001,186.462525728 L937.7559604,200.4183176 L937.84079496,203.084230784 L937.92562952,198.515655872 L938.0131151600001,196.4900768 L938.09794972,191.278522496 L938.18278428,162.286782752 L938.2676188400001,139.398409376 L938.3524534000001,155.08104003199998 L938.43728796,175.38903094399998 L938.5221225200002,189.07094816 L938.60695708,192.48970803199998 L938.69179164,190.791967328 L938.7766262,185.894495936 L938.8614607600001,119.96142099199999 L938.9462953200001,52.064666527999975 L939.03112988,70.30898633599998 L939.1133133600001,125.999889824 L939.1981479200001,164.132659136 L939.28298248,198.568914176 L939.36781704,181.943153024 L939.4526516000001,195.08402230399997 L939.53483508,135.84138953599998 L939.61966964,91.38093411199998 L939.7045042000001,83.85705238399997 L939.78668768,116.63365875199997 L939.87152224,169.394297408 L939.9563568000001,191.025104672 L940.03854028,192.80996326399998 L940.12337484,195.397399808 L940.20555832,189.03673587199998 L940.29039288,181.71512988799998 L940.3725763600002,182.855245568 L940.45741092,185.34921555199998 L940.5395944,196.29873487999998 L940.62442896,198.612296768 L940.7066124400001,202.541066624 L940.7914470000001,200.23156083199999 L940.8736304800001,199.86827571199998 L940.95581396,187.02508860799998 L941.04064852,174.00995830399998 L941.122832,176.60021647999997 L941.20501548,193.679554976 L941.2871989600001,204.18607808 L941.3720335200001,202.6491704 L941.454217,205.523178944 L941.5364004800001,201.58065363199998 L941.61858396,202.39663433599998 L941.70076744,199.756821248 L941.785602,193.59032086399998 L941.86778548,197.184374624 L941.9499689600001,201.33270272 L942.03215244,200.53012476799998 L942.1143359200001,202.69854895999998 L942.1965194,204.233516768 L942.27870288,198.366991136 L942.3608863600001,186.536946272 L942.44306984,188.055689696 L942.52525332,199.426866656 L942.6074368000001,208.057533536 L942.6869692,207.27611782399998 L942.76915268,206.708264384 L942.8513361600001,206.676697376 L942.93351964,207.029048672 L943.01570312,202.81688115199998 L943.0952355200001,197.054755904 L943.177419,199.14981766399998 L943.25960248,204.39770048 L943.34178596,201.49671007999999 L943.4213183600001,206.394357824 L943.50350184,204.367896992 L943.58568532,201.51840137599999 L943.66521772,192.209308352 L943.7474012000001,194.940295424 L943.8269336,202.97771417599998 L943.9091170800001,205.25388944 L943.98864948,205.513655936 L944.0708329600001,207.620709632 L944.15036536,205.185288512 L944.23254884,207.82510159999998 L944.31208124,201.190386656 L944.39426472,200.449355552 L944.47379712,204.33915161599998 L944.5559806000001,204.412514048 L944.6355130000001,206.375664512 L944.7150454,206.29789327999998 L944.79722888,205.14543296 L944.8767612800001,203.31313568 L944.9562936799999,200.26930016 L945.03582608,198.725691104 L945.11800956,200.206342496 L945.1975419600001,203.27962879999998 L945.2770743600001,206.307063584 L945.35660676,204.46383247999998 L945.43613916,206.830299968 L945.5183226400001,205.993157024 L945.59785504,204.48058591999998 L945.67738744,203.385616352 L945.75691984,204.59221673599998 L945.8364522400001,206.423632256 L945.91598464,205.927025024 L945.9955170400001,205.770424448 L946.07504944,204.91476454399998 L946.1545818400001,202.35007740799998 L946.23411424,202.635591296 L946.31364664,201.89420748799998 L946.3931790400001,200.323792928 L946.47006036,201.54855756799998 L946.5495927600001,206.250101888 L946.62912516,204.4700048 L946.70865756,206.54637324799998 L946.7881899600001,205.81751043199998 L946.86772236,205.5104816 L946.9446036800001,207.02481622399998 L947.02413608,205.639394912 L947.10366848,203.24382934399998 L947.1805498000001,206.18238272 L947.2600822,203.088992288 L947.3396146,204.004082816 L947.4164959200001,203.241360416 L947.49602832,202.42643782399998 L947.5755607200001,201.01438736 L947.65244204,199.370081312 L947.73197444,203.540100704 L947.80885576,205.17417833599998 L947.88838816,206.46630943999997 L947.9652694800001,207.83268473599998 L948.0448018800001,207.926151296 L948.1216832,207.28899152 L948.2012156000001,206.84811151999997 L948.27809692,204.717073952 L948.35497824,203.79422393599998 L948.4345106400001,205.36252227199998 L948.5113919600001,202.880367872 L948.59092436,205.07330499199998 L948.66780568,202.692023936 L948.7446870000001,202.50456176 L948.82156832,201.674296544 L948.90110072,201.210490784 L948.97798204,203.943946784 L949.05486336,205.16518438399999 L949.13174468,207.15778563199999 L949.2086260000001,207.71576335999998 L949.2881584,206.05875996799998 L949.36503972,206.499992672 L949.44192104,205.780829216 L949.5188023600001,204.94774236799998 L949.59568368,205.828620608 L949.6725650000001,203.83125785599998 L949.7494463200001,206.10214255999998 L949.8263276399999,204.589571456 L949.90320896,204.46524329599998 L949.98009028,204.628545248 L950.0569716000001,202.19012614399998 L950.13385292,200.41584867199998 L950.2107342400001,203.43958006399998 L950.2876155600001,207.076134656 L950.36449688,206.588168672 L950.4413782,206.19067126399997 L950.51825952,206.63948710399998 L950.59248976,206.458902656 L950.6693710800001,206.668585184 L950.7462524,204.213765344 L950.82313372,206.716376576 L950.89736396,206.21289161599998 L950.9742452800001,205.45052192 L951.0511266,208.01926515199997 L951.1280079200001,203.74784336 L951.2022381600001,202.746693056 L951.2791194800001,202.574044448 L951.3560008,201.32265065599998 L951.43023104,202.06544527999998 L951.5071123600001,203.07153344 L951.5813426000001,207.799177856 L951.6582239200001,203.50500665599998 L951.73245416,205.72898172799998 L951.8093354800001,205.740091904 L951.8862168,206.534910368 L951.9604470400001,205.50801267199998 L952.0346772800001,204.9461552 L952.1115586,205.762312256 L952.18578884,208.21730844799998 L952.2626701600001,204.072683744 L952.3369004000001,205.207861568 L952.4137817200001,201.37326367999998 L952.48801196,198.22890751999998 L952.5622422,201.73972313599998 L952.63912352,204.080972288 L952.71335376,204.09437504 L952.787584,205.19569328 L952.8618142400001,205.29074700799998 L952.93869556,206.724136064 L953.0129258000001,206.70315017599998 L953.0871560400001,207.97411903999998 L953.1613862800001,205.72263305599998 L953.2356165200001,206.92958614399998 L953.31249784,205.40414134399998 L953.38672808,206.78444844799998 L953.46095832,202.87578272 L953.53518856,204.588866048 L953.6094188000001,200.266125824 L953.6836490400001,197.457896576 L953.7578792800001,201.80162268799998 L953.8321095200001,203.85206739199998 L953.90633976,202.79783513599997 L953.9805700000001,204.37847811199998 L954.0548002400001,208.08257551999998 L954.12903048,206.56506656 L954.20326072,207.519836288 L954.27749096,207.03486828799998 L954.3517212,208.34798528 L954.4259514400001,208.189797536 L954.50018168,205.94307305599997 L954.57176084,204.827823008 L954.64599108,204.553948352 L954.7202213200001,203.442930752 L954.7944515600001,202.437195296 L954.8686818000001,198.02063580799998 L954.94026096,198.36946006399998 L955.0144912000001,200.236145984 L955.0887214400001,202.609843904 L955.1629516800001,205.631106368 L955.23453084,207.19199791999998 L955.30876108,208.05171392 L955.38299132,205.63445705599997 L955.45457048,205.680484928 L955.52880072,207.39092297599998 L955.60037988,205.72898172799998 L955.67461012,207.12339699199998 L955.74884036,204.43737968 L955.8204195200001,205.917678368 L955.8946497600001,205.71134652799998 L955.96622892,202.937682272 L956.0404591600001,201.155645312 L956.1120383200001,194.979445568 L956.1862685600001,192.46572415999998 L956.2578477200001,199.293720896 L956.33207796,206.75958281599998 L956.4036571199999,206.80349446399998 L956.4752362800001,203.88010735999998 L956.54946652,203.974808384 L956.62104568,204.979485728 L956.69262484,204.61161545599998 L956.76685508,205.385800736 L956.83843424,203.273985536 L956.9100134,208.39401315199999 L956.98424364,206.81707356799998 L957.0558228,205.57573183999997 L957.12740196,206.529443456 L957.19898112,197.870383904 L957.27056028,186.663919712 L957.3447905200001,186.8039432 L957.41636968,197.097256736 L957.4879488400001,206.55589625599998 L957.559528,204.006904448 L957.63110716,204.01466393599998 L957.70268632,202.55535113599998 L957.77426548,203.975690144 L957.8484957200001,203.94059609599998 L957.92007488,204.14216643199998 L957.9916540400001,202.610196608 L958.0632332,206.163513056 L958.1348123600001,203.030267072 L958.20639152,203.296911296 L958.2779706800001,200.26489135999998 L958.34954984,194.454445664 L958.41847792,173.21390537599999 L958.49005708,171.644372576 L958.56163624,188.55776383999998 L958.6332154,201.10944108799998 L958.70479456,201.634088288 L958.77637372,204.64723855999998 L958.84795288,202.857442112 L958.91953204,203.77288534399997 L958.9884601200001,203.247356384 L959.0600392800001,202.317804992 L959.1316184400001,200.99692851199998 L959.2031976000001,201.73601974399998 L959.27212568,196.509122816 L959.3437048400001,195.784845152 L959.415284,189.576902048 L959.48421208,178.305363968 L959.5557912400001,127.81349379199999 L959.6273704,105.59613977599999 L959.69629848,130.586276288 L959.76787764,161.84484464 L959.8394568,182.148603104 L959.90838488,194.728673024 L959.97996404,182.14930851199998 L960.0488921200001,177.60189584 L960.1204712800001,90.780102848 L960.18939936,54.894058015999974 L960.2609785200001,76.39577561599998 L960.3299066000001,115.81203478399998 L960.40148576,177.78724179199997 L960.47041384,184.87447596799998 L960.541993,193.01118089599998 L960.61092108,179.90558201599998 L960.68250024,145.981276832 L960.7514283200001,118.91371376 L960.8203564,114.72658822399998 L960.8919355600001,141.839121056 L960.9608636400001,185.621855744 L961.02979172,188.967429536 L961.10137088,197.449784384 L961.17029896,194.717033792 L961.23922704,202.696609088 L961.3108062,199.70515011199998 L961.3797342800001,203.55914672 L961.4486623600001,202.265781152 L961.51759044,205.349295872 L961.58651852,202.54670988799998 L961.6580976800001,205.713815456 L961.7270257600001,201.26798153599998 L961.79595384,197.281544576 L961.8648819200001,185.15487564799997 L961.9338100000001,173.060479136 L962.0027380800001,176.956094816 L962.0716661600001,196.5473912 L962.14324532,199.491235136 L962.2121734,202.457475776 L962.28110148,202.41744387199998 L962.35002956,205.46639359999998 L962.41895764,202.905586208 L962.48788572,204.109717664 L962.5568138,204.00214294399998 L962.62574188,204.23386947199998 L962.6946699599999,202.22821817599998 L962.7609469600001,203.352109472 L962.82987504,202.96924927999999 L962.89880312,205.868828864 L962.9677312,195.42755599999998 L963.03665928,185.555018336 L963.1055873600001,187.54709052799998 L963.17451544,199.952395616 L963.24344352,205.060078592 L963.30972052,205.44152796799997 L963.3786486,206.778276128 L963.4475766800001,207.60413254399998 L963.5165047600001,203.861237696 L963.5854328400001,205.58402038399998 L963.6517098400001,204.724304384 L963.7206379200001,205.14102416 L963.789566,203.35193311999998 L963.855843,203.28774099199998 L963.92477108,205.502722112 L963.99369916,205.835498336 L964.05997616,198.469980704 L964.1289042400001,191.07130889599998 L964.1978323200001,195.303404192 L964.26410932,202.51196854399998 L964.3330374,204.528730016 L964.3993144000001,206.82871279999998 L964.4682424800001,206.14005823999997 L964.5345194800001,204.922171328 L964.6034475600001,207.157080224 L964.6697245600001,205.939369664 L964.73865264,207.25566099199997 L964.8049296400001,205.85736598399998 L964.87385772,205.037505536 L964.94013472,207.67784767999999 L965.0090628,205.81380704 L965.0753398,206.087858048 L965.14426788,202.28465081599998 L965.21054488,198.88088086399998 L965.27682188,197.99488841599998 L965.34574996,199.72578329599997 L965.41202696,204.01854368 L965.4783039600001,204.21517616 L965.54723204,204.356434112 L965.61350904,204.90577059199998 L965.67978604,205.07224688 L965.7487141199999,208.06688019199999 L965.8149911200001,207.79335823999998 L965.8812681200001,207.466577984 L965.94754512,207.53447350399998 L966.0164732000001,206.95797881599998 L966.0827502000001,208.163168384 L966.1490272,204.683743424 L966.2153042000001,202.50456176 L966.2815812000001,202.68849689599998 L966.3478582,201.49388844799998 L966.41678628,198.82903337599998 L966.4830632800001,201.20467116799998 L966.54934028,205.03186227199998 L966.61561728,202.39522352 L966.68189428,206.372137472 L966.7481712800001,204.305468384 L966.8144482800001,206.94263619199998 L966.88072528,205.20398182399998 L966.9470022800001,208.119080384 L967.01327928,206.152931936 L967.07955628,207.519483584 L967.14583328,204.38606124799998 L967.21211028,205.478914592 L967.27838728,203.357576384 L967.3446642800001,203.003814272 L967.4109412800001,200.663270528 L967.47721828,199.072222784 L967.5408442,202.640881856 L967.6071212,204.218350496 L967.6733982,204.702613088 L967.7396752000001,206.50616499199998 L967.8059522000001,205.617703616 L967.8722292,206.57652944 L967.93585512,206.01043951999998 L968.00213212,207.164310656 L968.06840912,206.09808646399998 L968.1346861200001,206.10760947199998 L968.19831204,203.547331136 L968.26458904,206.44973235199998 L968.33086604,202.43366825599998 L968.3971430400001,202.636473056 L968.4607689600001,200.812817024 L968.52704596,201.757534688 L968.59332296,203.07576588799998 L968.6569488800001,204.21164911999998 L968.7232258800001,208.17516031999997 L968.7868518,205.45616518399999 L968.8531288,206.208482816 L968.9194058,207.451940768 L968.9830317200001,204.76609980799998 L969.0493087200001,206.022078752 L969.11293464,206.64213238399998 L969.1792116400001,205.65262131199998 L969.24283756,206.33351638399998 L969.30911456,204.998531744 L969.3727404800001,206.029661888 L969.4390174800001,204.428033024 L969.5026434000001,200.768905376 L969.5689204,200.83785900799998 L969.63254632,204.62290198399998 L969.6988233200001,206.06475593599998 L969.76244924,205.19851491199998 L969.8260751600001,206.796793088 L969.8923521600001,203.956115072 L969.95597808,205.25600566399999 L970.0196040000001,205.333953248 L970.085881,205.80498943999999 L970.1495069200001,206.58517068799998 L970.2131328400001,205.39461833599998 L970.27940984,207.48527129599998 L970.34303576,206.12877171199997 L970.40666168,204.38606124799998 L970.4729386800001,204.42062624 L970.5365646,202.06685609599998 L970.6001905200001,200.830275872 L970.66381644,202.102302848 L970.7274423599999,203.61028879999998 L970.7937193600001,205.789294112 L970.85734528,202.288354208 L970.9209712,206.02225510399998 L970.98459712,202.02065187199997 L971.04822304,204.43826144 L971.1118489600001,207.748564832 L971.1754748800001,208.025084768 L971.24175188,207.22285952 L971.3053778,208.429283552 L971.36900372,206.150815712 L971.4326296400001,205.98345766399999 L971.4962555600001,202.062623648 L971.5598814800001,199.527210944 L971.6235074000001,201.95381446399998 L971.68713332,203.29550048 L971.75075924,203.554032512 L971.81438516,204.320811008 L971.87801108,203.118090368 L971.941637,205.40907919999998 L972.00526292,202.40404112 L972.0688888400001,205.218266336 L972.12986368,207.59602035199998 L972.1934896,206.61179983999997 L972.25711552,205.487379488 L972.3207414400001,207.228855488 L972.38436736,203.95100086399998 L972.4479932800001,205.96035555199998 L972.5116192,199.91201100799998 L972.5725940400001,199.44220928 L972.6362199600001,202.937682272 L972.6998458800001,203.479611968 L972.7634718,202.27371699199998 L972.8270977200001,204.56082608 L972.8880725600001,205.63304624 L972.9516984800001,205.0740104 L973.0153244,205.77606771199999 L973.0789503200001,204.41374851199998 L973.1399251600001,204.024363296 L973.2035510800001,204.989185088 L973.2671770000001,206.174623232 L973.32815184,206.72395971199998 L973.39177776,204.213765344 L973.4554036800001,205.05760966399998 L973.51637852,201.43339971199998 L973.58000444,198.968880512 L973.64097928,199.803025472 L973.7046052000001,201.14770947199997 L973.76823112,203.03626304 L973.8292059600001,205.235901536 L973.89283188,207.3621776 L973.9538067200001,206.594517344 L974.01743264,204.680921792 L974.07840748,204.441435776 L974.1420334,200.331199712 L974.20300824,201.535154816 L974.26663416,208.26474713599998 L974.327609,204.72306992 L974.3912349200001,207.52636131199998 L974.4522097600001,204.196482848 L974.5131846,203.727210176 L974.57681052,202.063858112 L974.6377853600001,195.347844896 L974.70141128,193.05350537599998 L974.7623861200001,201.80514972799998 L974.8233609600001,205.747851392 L974.88698688,207.648044192 L974.9479617200001,202.07814262399998 L975.00893656,205.155308672 L975.0725624800001,197.845518272 L975.13353732,196.536104672 L975.19451216,203.091461216 L975.255487,207.234675104 L975.3191129200001,206.56541926399998 L975.3800877600002,206.299304096 L975.4410626,207.538353248 L975.5020374400001,207.23255888 L975.56566336,197.687330528 L975.6266382000001,187.95693257599999 L975.68761304,187.67476937599997 L975.7485878800001,199.13659126399997 L975.80956272,205.23554883199998 L975.87053756,203.10927276799998 L975.93416348,200.680023968 L975.99513832,200.753033696 L976.0561131600001,195.092134496 L976.1170880000001,190.702027808 L976.17806284,200.07143321599997 L976.23903768,205.29251052799998 L976.30001252,202.30175695999998 L976.3609873600001,204.24339247999998 L976.4219622,202.829754848 L976.48293704,203.85841606399998 L976.5439118800001,190.591278752 L976.60488672,172.70724607999998 L976.66586156,174.158093984 L976.7268364000001,190.883141312 L976.78781124,202.92939372799998 L976.8487860800001,199.57006447999998 L976.9097609199999,201.400069184 L976.97073576,196.91420336 L977.0317106000001,191.5522208 L977.09268544,179.60595996799998 L977.15366028,184.90198687999998 L977.21463512,186.49567990399999 L977.27295888,191.393680352 L977.3339337200001,191.994158912 L977.39490856,192.42692671999998 L977.4558834000001,185.679875552 L977.51685824,157.398305312 L977.57783308,95.03318403199998 L977.63615684,81.22464607999999 L977.6971316800001,112.18147615999997 L977.7581065200001,151.423675904 L977.81908136,185.51481008 L977.87740512,182.981866304 L977.93837996,192.538733888 L977.9993548000001,150.417411392 L978.06032964,95.75375830399999 L978.1186534,69.31065766399999 L978.17962824,75.460228256 L978.24060308,130.93809852799998 L978.29892684,188.607318752 L978.3599016800001,185.21871507199998 L978.42087652,194.18339264 L978.47920028,181.69890550399998 L978.5401751200001,164.136186176 L978.59849888,152.08005804799998 L978.65947372,147.66773100799998 L978.7204485600001,169.23575695999997 L978.77877232,192.537852128 L978.83974716,194.74207577599998 L978.8980709200001,197.80213568 L978.95904576,200.26841839999997 L979.01736952,199.307652704 L979.0783443600001,185.250987488 L979.1366681200001,182.829674528 L979.19764296,193.80088515199998 L979.2559667200001,208.36562048 L979.31694156,204.45713110399998 L979.37526532,206.18749692799997 L979.43624016,201.125841824 L979.4945639200001,198.96517712 L979.55288768,190.69462102399999 L979.61386252,179.484629792 L979.6721862800001,184.28422582399998 L979.73316112,199.950632096 L979.79148488,198.25095152 L979.8498086400001,203.10556937599998 L979.91078348,202.459592 L979.96910724,204.75798761599998 L980.0274310000001,193.33602127999998 L980.0884058400001,194.009333216 L980.1467296,202.42255808 L980.2050533600001,206.392065248 L980.2633771200001,205.81310163199998 L980.32435196,205.220029856 L980.3826757200001,204.812304032 L980.4409994800001,205.83461657599997 L980.4993232400001,197.56688211199997 L980.56029808,189.543924224 L980.6186218400001,191.247837248 L980.6769456000001,202.99358585599998 L980.7352693600001,202.47934342399998 L980.79359312,205.98839551999998 L980.85456796,205.5986576 L980.9128917200001,205.69600390399998 L980.97121548,197.34379683199998 L981.0295392400001,199.06305247999998 L981.0878630000001,206.12841900799998 L981.1461867600001,206.31782105599999 L981.20451052,203.26992944 L981.26283428,206.12348115199998 L981.3238091200001,204.923582144 L981.3821328800001,207.349127552 L981.44045664,198.396794624 L981.4987804,194.27121593599998 L981.5571041600001,198.910508 L981.6154279200001,203.576076512 L981.67375168,204.842812928 L981.73207544,207.95330950399998 L981.7903992,205.222322432 L981.8487229600001,204.05540124799998 L981.90704672,203.94147785599998 L981.96537048,203.475026816 L982.02369424,203.194274432 L982.0793669200001,202.55164774399998 L982.1376906800001,206.109549344 L982.19601444,205.444525952 L982.2543382,206.670348704 L982.3126619600001,206.37725168 L982.3709857200001,202.74193155199998 L982.42930948,200.30968476799998 L982.48763324,200.12469152 L982.5433059200001,201.88062838399998 L982.6016296800001,204.823766912 L982.65995344,203.78611174399998 L982.7182772,204.91353008 L982.77660096,202.955846528 L982.8349247200001,204.246743168 L982.8905974,205.448052992 L982.94892116,203.48931132799999 L983.0072449200001,202.67227251199998 L983.0655686800001,206.06740121599998 L983.1212413600001,206.85322572799998 L983.1795651200001,207.244550816 L983.23788888,205.19269529599998 L983.2935615600001,203.829317984 L983.3518853200001,204.717603008 L983.4102090800001,202.76856070399998 L983.4658817600001,199.434626144 L983.52420552,203.088110528 L983.58252928,203.10468761599998 L983.6382019600001,202.72976326399998 L983.6965257200001,204.65499804799998 L983.7548494800001,203.486666048 L983.81052216,203.92578252799998 L983.86884592,201.82155046399998 L983.9245186,204.817947296 L983.9828423600001,207.182827616 L984.0411661200001,208.354863008 L984.0968388,206.988840416 L984.15516256,206.44373638399998 L984.21083524,205.181056064 L984.2691590000001,205.08776585599998 L984.3248316800001,202.277244032 L984.3831554400001,199.87039193599998 L984.43882812,203.590713728 L984.49715188,203.11509238399998 L984.55282456,204.085028384 L984.6111483200001,205.181937824 L984.666821,203.47008896 L984.7224936800001,202.969425632 L984.78081744,202.96290060799998 L984.83649012,206.32258256 L984.89481388,206.701210304 L984.9504865600001,205.45105097599998 L985.0061592400001,206.018728064 L985.0644830000001,205.969525856 L985.1201556800002,203.703226304 L985.17582836,203.93830351999998 L985.23415212,202.565050496 L985.2898248,203.597767808 L985.3454974800001,202.72835244799998 L985.4038212400001,205.103461184 L985.4594939200001,206.136883904 L985.5151666,204.82623583999998 L985.57349036,206.07110460799998 L985.62916304,203.744845376 L985.68483572,201.81026393599998 L985.7405084000001,204.872440064 L985.7988321600001,206.61603228799999 L985.8545048400001,207.068022464 "/>
                            </g>
                        </g>
                    </g>
                </g>
                <g fill="none" stroke="black" stroke-width="1" fill-rule="evenodd" stroke-linecap="square" stroke-linejoin="bevel" id="QGraphicsRectItem_1">
                    <g fill="none" stroke="none" transform="matrix(1,0,0,1,56,1)" font-family="Ubuntu" font-size="14.6667" font-weight="400" font-style="normal">
                        <rect vector-effect="non-scaling-stroke" x="0" y="0" width="959" height="239"/>
                    </g>
                </g>
            </g>
        </g>
        <g fill="none" stroke="black" stroke-width="1" fill-rule="evenodd" stroke-linecap="square" stroke-linejoin="bevel" id="AxisItem_1">
            <g fill="none" stroke="#969696" stroke-opacity="1" stroke-width="1" stroke-linecap="square" stroke-linejoin="bevel" font-family="Ubuntu" font-size="14.6667" font-weight="400" font-style="normal">
                <polyline fill="none" vector-effect="non-scaling-stroke" points="56.0,240.0 1015.0,240.0"/>
            </g>
            <g fill="none" stroke="#969696" stroke-opacity="0.698039" stroke-width="1" stroke-linecap="square" stroke-linejoin="bevel" font-family="Ubuntu" font-size="14.6667" font-weight="400" font-style="normal">
                <polyline fill="none" vector-effect="non-scaling-stroke" points="85.0891,1.0 85.0891,240.0"/>
                <polyline fill="none" vector-effect="non-scaling-stroke" points="615.306,1.0 615.306,240.0"/>
            </g>
            <g fill="none" stroke="#969696" stroke-opacity="0.34902" stroke-width="1" stroke-linecap="square" stroke-linejoin="bevel" font-family="Ubuntu" font-size="14.6667" font-weight="400" font-style="normal">
                <polyline fill="none" vector-effect="non-scaling-stroke" points="350.197,1.0 350.197,240.0"/>
                <polyline fill="none" vector-effect="non-scaling-stroke" points="880.414,1.0 880.414,240.0"/>
            </g>
            <g fill="none" stroke="#969696" stroke-opacity="0.231373" stroke-width="1" stroke-linecap="square" stroke-linejoin="bevel" font-family="Ubuntu" font-size="14.6667" font-weight="400" font-style="normal">
                <polyline fill="none" vector-effect="non-scaling-stroke" points="59.39741,1.0 59.39741,240.0"/>
                <polyline fill="none" vector-effect="non-scaling-stroke" points="72.9584,1.0 72.9584,240.0"/>
                <polyline fill="none" vector-effect="non-scaling-stroke" points="85.0891,1.0 85.0891,240.0"/>
                <polyline fill="none" vector-effect="non-scaling-stroke" points="164.89499999999998,1.0 164.89499999999998,240.0"/>
                <polyline fill="none" vector-effect="non-scaling-stroke" points="211.578,1.0 211.578,240.0"/>
                <polyline fill="none" vector-effect="non-scaling-stroke" points="244.7,1.0 244.7,240.0"/>
                <polyline fill="none" vector-effect="non-scaling-stroke" points="270.392,1.0 270.392,240.0"/>
                <polyline fill="none" vector-effect="non-scaling-stroke" points="291.38300000000004,1.0 291.38300000000004,240.0"/>
                <polyline fill="none" vector-effect="non-scaling-stroke" points="309.132,1.0 309.132,240.0"/>
                <polyline fill="none" vector-effect="non-scaling-stroke" points="324.506,1.0 324.506,240.0"/>
                <polyline fill="none" vector-effect="non-scaling-stroke" points="338.067,1.0 338.067,240.0"/>
                <polyline fill="none" vector-effect="non-scaling-stroke" points="350.197,1.0 350.197,240.0"/>
                <polyline fill="none" vector-effect="non-scaling-stroke" points="430.003,1.0 430.003,240.0"/>
                <polyline fill="none" vector-effect="non-scaling-stroke" points="476.686,1.0 476.686,240.0"/>
                <polyline fill="none" vector-effect="non-scaling-stroke" points="509.808,1.0 509.808,240.0"/>
                <polyline fill="none" vector-effect="non-scaling-stroke" points="535.5,1.0 535.5,240.0"/>
                <polyline fill="none" vector-effect="non-scaling-stroke" points="556.492,1.0 556.492,240.0"/>
                <polyline fill="none" vector-effect="non-scaling-stroke" points="574.24,1.0 574.24,240.0"/>
                <polyline fill="none" vector-effect="non-scaling-stroke" points="589.614,1.0 589.614,240.0"/>
                <polyline fill="none" vector-effect="non-scaling-stroke" points="603.175,1.0 603.175,240.0"/>
                <polyline fill="none" vector-effect="non-scaling-stroke" points="615.306,1.0 615.306,240.0"/>
                <polyline fill="none" vector-effect="non-scaling-stroke" points="695.111,1.0 695.111,240.0"/>
                <polyline fill="none" vector-effect="non-scaling-stroke" points="741.794,1.0 741.794,240.0"/>
                <polyline fill="none" vector-effect="non-scaling-stroke" points="774.917,1.0 774.917,240.0"/>
                <polyline fill="none" vector-effect="non-scaling-stroke" points="800.608,1.0 800.608,240.0"/>
                <polyline fill="none" vector-effect="non-scaling-stroke" points="821.6,1.0 821.6,240.0"/>
                <polyline fill="none" vector-effect="non-scaling-stroke" points="839.348,1.0 839.348,240.0"/>
                <polyline fill="none" vector-effect="non-scaling-stroke" points="854.722,1.0 854.722,240.0"/>
                <polyline fill="none" vector-effect="non-scaling-stroke" points="868.283,1.0 868.283,240.0"/>
                <polyline fill="none" vector-effect="non-scaling-stroke" points="880.414,1.0 880.414,240.0"/>
                <polyline fill="none" vector-effect="non-scaling-stroke" points="960.219,1.0 960.219,240.0"/>
                <polyline fill="none" vector-effect="non-scaling-stroke" points="1006.903,1.0 1006.903,240.0"/>
            </g>
            <g fill="none" stroke="#969696" stroke-opacity="1" stroke-width="1" stroke-linecap="square" stroke-linejoin="bevel" transform="matrix(1,0,0,1,56,240)" font-family="Ubuntu" font-size="14.6667" font-weight="400" font-style="normal">
                <text fill="#969696" fill-opacity="1" stroke="none" xml:space="preserve" x="10.3281" y="16" font-family="Ubuntu" font-size="14.6667" font-weight="400" font-style="normal">0.001</text>
                <text fill="#969696" fill-opacity="1" stroke="none" xml:space="preserve" x="549" y="16" font-family="Ubuntu" font-size="14.6667" font-weight="400" font-style="normal">0.1</text>
                <text fill="#969696" fill-opacity="1" stroke="none" xml:space="preserve" x="279.672" y="16" font-family="Ubuntu" font-size="14.6667" font-weight="400" font-style="normal">0.01</text>
                <text fill="#969696" fill-opacity="1" stroke="none" xml:space="preserve" x="820.172" y="16" font-family="Ubuntu" font-size="14.6667" font-weight="400" font-style="normal">1</text>
            </g>
            <g fill="none" stroke="black" stroke-width="1" fill-rule="evenodd" stroke-linecap="square" stroke-linejoin="bevel" id="QGraphicsTextItem_1">
                


                


                


                <g fill="none" stroke="#969696" stroke-opacity="1" stroke-width="1" stroke-linecap="square" stroke-linejoin="bevel" transform="matrix(1,0,0,1,476,260)" font-family="Ubuntu" font-size="14.6667" font-weight="400" font-style="normal">
                    <text fill="#969696" fill-opacity="1" stroke="none" xml:space="preserve" x="4" y="18" font-family="Ubuntu" font-size="14.6667" font-weight="400" font-style="normal">Frequency (kHz)</text>
                </g>
                


                

            </g>
        </g>
        <g fill="none" stroke="black" stroke-width="1" fill-rule="evenodd" stroke-linecap="square" stroke-linejoin="bevel" id="AxisItem_2">
            <g fill="none" stroke="#969696" stroke-opacity="1" stroke-width="1" stroke-linecap="square" stroke-linejoin="bevel" font-family="Ubuntu" font-size="14.6667" font-weight="400" font-style="normal">
                <polyline fill="none" vector-effect="non-scaling-stroke" points="56.0,1.0 56.0,240.0"/>
            </g>
            <g fill="none" stroke="#969696" stroke-opacity="0.698039" stroke-width="1" stroke-linecap="square" stroke-linejoin="bevel" font-family="Ubuntu" font-size="14.6667" font-weight="400" font-style="normal">
                <polyline fill="none" vector-effect="non-scaling-stroke" points="1015.0,208.676 56.0,208.676"/>
            </g>
            <g fill="none" stroke="#969696" stroke-opacity="0.34902" stroke-width="1" stroke-linecap="square" stroke-linejoin="bevel" font-family="Ubuntu" font-size="14.6667" font-weight="400" font-style="normal">
                <polyline fill="none" vector-effect="non-scaling-stroke" points="1015.0,32.323899999999995 56.0,32.323899999999995"/>
            </g>
            <g fill="none" stroke="#969696" stroke-opacity="0.231373" stroke-width="1" stroke-linecap="square" stroke-linejoin="bevel" font-family="Ubuntu" font-size="14.6667" font-weight="400" font-style="normal">
                <polyline fill="none" vector-effect="non-scaling-stroke" points="1015.0,173.406 56.0,173.406"/>
                <polyline fill="none" vector-effect="non-scaling-stroke" points="1015.0,138.135 56.0,138.135"/>
                <polyline fill="none" vector-effect="non-scaling-stroke" points="1015.0,102.865 56.0,102.865"/>
                <polyline fill="none" vector-effect="non-scaling-stroke" points="1015.0,67.5944 56.0,67.5944"/>
            </g>
            <g fill="none" stroke="#969696" stroke-opacity="1" stroke-width="1" stroke-linecap="square" stroke-linejoin="bevel" transform="matrix(1,0,0,1,1,1)" font-family="Ubuntu" font-size="14.6667" font-weight="400" font-style="normal">
                <text fill="#969696" fill-opacity="1" stroke="none" xml:space="preserve" x="41.5469" y="213.172" font-family="Ubuntu" font-size="14.6667" font-weight="400" font-style="normal">0</text>
                <text fill="#969696" fill-opacity="1" stroke="none" xml:space="preserve" x="41.5469" y="36.8125" font-family="Ubuntu" font-size="14.6667" font-weight="400" font-style="normal">1</text>
                <text fill="#969696" fill-opacity="1" stroke="none" xml:space="preserve" x="29.4063" y="177.891" font-family="Ubuntu" font-size="14.6667" font-weight="400" font-style="normal">0.2</text>
                <text fill="#969696" fill-opacity="1" stroke="none" xml:space="preserve" x="29.4063" y="142.625" font-family="Ubuntu" font-size="14.6667" font-weight="400" font-style="normal">0.4</text>
                <text fill="#969696" fill-opacity="1" stroke="none" xml:space="preserve" x="29.4063" y="107.359" font-family="Ubuntu" font-size="14.6667" font-weight="400" font-style="normal">0.6</text>
                <text fill="#969696" fill-opacity="1" stroke="none" xml:space="preserve" x="29.4063" y="72.0938" font-family="Ubuntu" font-size="14.6667" font-weight="400" font-style="normal">0.8</text>
            </g>
            <g fill="none" stroke="black" stroke-width="1" fill-rule="evenodd" stroke-linecap="square" stroke-linejoin="bevel" id="QGraphicsTextItem_2">
                


                


                


                <g fill="none" stroke="#969696" stroke-opacity="1" stroke-width="1" stroke-linecap="square" stroke-linejoin="bevel" transform="matrix(0,-1,1,0,-4,152)" font-family="Ubuntu" font-size="14.6667" font-weight="400" font-style="normal">
                    <text fill="#969696" fill-opacity="1" stroke="none" xml:space="preserve" x="4" y="18" font-family="Ubuntu" font-size="14.6667" font-weight="400" font-style="normal">|Power| </text>
                </g>
                


                

            </g>
        </g>
    </g>
</g>

</svg>
